<svg width="22" height="22" viewBox="0 0 22 22" fill="none" xmlns="http://www.w3.org/2000/svg">
<mask id="mask0_21_18293" style="mask-type:alpha" maskUnits="userSpaceOnUse" x="0" y="0" width="22" height="22">
<rect x="0.893555" y="0.894775" width="20.2105" height="20.2105" fill="#D9D9D9"/>
</mask>
<g mask="url(#mask0_21_18293)">
<path d="M17.2643 18.158C15.6772 18.158 14.0829 17.7891 12.4813 17.0512C10.8797 16.3132 9.4068 15.2722 8.06267 13.9281C6.72395 12.584 5.68563 11.1124 4.9477 9.51353C4.20978 7.91461 3.84082 6.32163 3.84082 4.7346C3.84082 4.48197 3.92503 4.2701 4.09345 4.09898C4.26187 3.92785 4.4724 3.84229 4.72503 3.84229H7.47156C7.68425 3.84229 7.87183 3.91165 8.03432 4.05039C8.1968 4.18913 8.30017 4.36052 8.34442 4.56456L8.82701 7.04226C8.86048 7.27223 8.85347 7.4698 8.80596 7.63498C8.75846 7.80016 8.67317 7.93889 8.55008 8.05117L6.60516 9.94429C6.91825 10.5176 7.27588 11.0598 7.67804 11.571C8.0802 12.0822 8.51556 12.5705 8.98411 13.0358C9.4462 13.4979 9.93743 13.927 10.4578 14.3233C10.9782 14.7195 11.5401 15.0882 12.1436 15.4293L14.0335 13.5233C14.1652 13.3861 14.3248 13.2901 14.5121 13.235C14.6994 13.1799 14.894 13.1664 15.0959 13.1945L17.4343 13.6706C17.647 13.7268 17.8205 13.8353 17.9549 13.9961C18.0894 14.157 18.1566 14.3395 18.1566 14.5435V17.2738C18.1566 17.5265 18.071 17.737 17.8999 17.9054C17.7288 18.0738 17.5169 18.158 17.2643 18.158Z" fill="white"/>
</g>
</svg>
