<svg width="26" height="21" viewBox="0 0 26 21" fill="none" xmlns="http://www.w3.org/2000/svg">
<path d="M1 19.9411C2.82423 18.8878 4.89356 18.3334 7 18.3334C9.10644 18.3334 11.1758 18.8878 13 19.9411C14.8242 18.8878 16.8936 18.3334 19 18.3334C21.1064 18.3334 23.1758 18.8878 25 19.9411" stroke="#A3773B" stroke-width="2" stroke-linecap="round" stroke-linejoin="round"/>
<path d="M1 2.6077C2.82423 1.55448 4.89356 1 7 1C9.10644 1 11.1758 1.55448 13 2.6077C14.8242 1.55448 16.8936 1 19 1C21.1064 1 23.1758 1.55448 25 2.6077" stroke="#A3773B" stroke-width="2" stroke-linecap="round" stroke-linejoin="round"/>
<path d="M1 2.60779V19.9411" stroke="#A3773B" stroke-width="2" stroke-linecap="round" stroke-linejoin="round"/>
<path d="M13 2.60779V19.9411" stroke="#A3773B" stroke-width="2" stroke-linecap="round" stroke-linejoin="round"/>
<path d="M25 2.60779V19.9411" stroke="#A3773B" stroke-width="2" stroke-linecap="round" stroke-linejoin="round"/>
</svg>
