<svg width="25" height="26" viewBox="0 0 25 26" fill="none" xmlns="http://www.w3.org/2000/svg">
<path d="M20.5 2.5C20.5 2.10218 20.342 1.72064 20.0607 1.43934C19.7794 1.15804 19.3978 1 19 1H4C3.20435 1 2.44129 1.31607 1.87868 1.87868C1.31607 2.44129 1 3.20435 1 4M1 4C1 4.79565 1.31607 5.55871 1.87868 6.12132C2.44129 6.68393 3.20435 7 4 7H22C22.3978 7 22.7794 7.15804 23.0607 7.43934C23.342 7.72064 23.5 8.10218 23.5 8.5V13M1 4V22C1 22.7956 1.31607 23.5587 1.87868 24.1213C2.44129 24.6839 3.20435 25 4 25H22C22.3978 25 22.7794 24.842 23.0607 24.5607C23.342 24.2794 23.5 23.8978 23.5 23.5V19" stroke="#A3773B" stroke-width="2" stroke-linecap="round" stroke-linejoin="round"/>
</svg>
