<svg width="24" height="26" viewBox="0 0 24 26" fill="none" xmlns="http://www.w3.org/2000/svg">
<path d="M3.66667 25C5.13943 25 6.33333 23.8061 6.33333 22.3333C6.33333 20.8605 5.13943 19.6666 3.66667 19.6666C2.19391 19.6666 1 20.8605 1 22.3333C1 23.8061 2.19391 25 3.66667 25Z" stroke="#A3773B" stroke-width="2" stroke-linecap="round" stroke-linejoin="round"/>
<path d="M18.3346 25C19.8074 25 21.0013 23.8061 21.0013 22.3333C21.0013 20.8605 19.8074 19.6666 18.3346 19.6666C16.8619 19.6666 15.668 20.8605 15.668 22.3333C15.668 23.8061 16.8619 25 18.3346 25Z" stroke="#A3773B" stroke-width="2" stroke-linecap="round" stroke-linejoin="round"/>
<path d="M18.3333 19.6667H3.66667V1H1" stroke="#A3773B" stroke-width="2" stroke-linecap="round" stroke-linejoin="round"/>
<path d="M3.66797 3.66663L22.3346 4.99996L21.0013 14.3333H3.66797" stroke="#A3773B" stroke-width="2" stroke-linecap="round" stroke-linejoin="round"/>
</svg>
