<svg width="18" height="18" viewBox="0 0 18 18" fill="none" xmlns="http://www.w3.org/2000/svg">
<mask id="mask0_55_46706" style="mask-type:alpha" maskUnits="userSpaceOnUse" x="0" y="0" width="18" height="18">
<rect x="0.578125" y="0.578857" width="16.8421" height="16.8421" fill="#D9D9D9"/>
</mask>
<g mask="url(#mask0_55_46706)">
<path d="M14.2214 14.9649C12.8988 14.9649 11.5702 14.6575 10.2355 14.0425C8.90086 13.4276 7.67347 12.5601 6.55337 11.44C5.43776 10.3199 4.5725 9.09361 3.95756 7.76119C3.34262 6.42876 3.03516 5.10128 3.03516 3.77875C3.03516 3.56823 3.10533 3.39166 3.24568 3.24907C3.38603 3.10646 3.56147 3.03516 3.772 3.03516H6.06077C6.23801 3.03516 6.39433 3.09296 6.52973 3.20858C6.66514 3.32419 6.75128 3.46702 6.78816 3.63705L7.19031 5.70181C7.21821 5.89344 7.21236 6.05809 7.17277 6.19574C7.13319 6.33338 7.06212 6.44899 6.95954 6.54256L5.33877 8.12016C5.59968 8.59789 5.89771 9.04975 6.23284 9.47575C6.56798 9.90176 6.93077 10.3087 7.32123 10.6964C7.7063 11.0815 8.11567 11.4391 8.54931 11.7693C8.98296 12.0995 9.45125 12.4067 9.95417 12.691L11.5291 11.1026C11.6388 10.9884 11.7718 10.9083 11.9279 10.8624C12.084 10.8165 12.2461 10.8053 12.4144 10.8287L14.3631 11.2254C14.5403 11.2722 14.6849 11.3626 14.7969 11.4967C14.9089 11.6307 14.9649 11.7828 14.9649 11.9528V14.2281C14.9649 14.4386 14.8936 14.6141 14.751 14.7544C14.6084 14.8948 14.4319 14.9649 14.2214 14.9649Z" fill="white"/>
</g>
</svg>
