<svg width="18" height="18" viewBox="0 0 18 18" fill="none" xmlns="http://www.w3.org/2000/svg">
<mask id="mask0_55_46714" style="mask-type:alpha" maskUnits="userSpaceOnUse" x="0" y="0" width="18" height="18">
<rect x="0.578125" y="0.578857" width="16.8421" height="16.8421" fill="#D9D9D9"/>
</mask>
<g mask="url(#mask0_55_46714)">
<path d="M9.00119 8.90543C9.35038 8.90543 9.6489 8.7811 9.89676 8.53245C10.1446 8.28379 10.2685 7.98487 10.2685 7.63569C10.2685 7.28651 10.1442 6.98799 9.89556 6.74013C9.64691 6.49227 9.34799 6.36834 8.99881 6.36834C8.64963 6.36834 8.35111 6.49267 8.10325 6.74132C7.85539 6.98998 7.73146 7.2889 7.73146 7.63808C7.73146 7.98726 7.85579 8.28578 8.10444 8.53364C8.3531 8.7815 8.65201 8.90543 9.00119 8.90543ZM9 15.6733C7.23393 14.1429 5.9096 12.7187 5.027 11.4007C4.14442 10.0827 3.70312 8.8726 3.70312 7.77048C3.70312 6.15107 4.22697 4.84001 5.27465 3.8373C6.32232 2.8346 7.56411 2.33325 9 2.33325C10.4359 2.33325 11.6777 2.8346 12.7254 3.8373C13.773 4.84001 14.2969 6.15107 14.2969 7.77048C14.2969 8.8726 13.8556 10.0827 12.973 11.4007C12.0904 12.7187 10.7661 14.1429 9 15.6733Z" fill="white"/>
</g>
</svg>
