<svg width="23" height="28" viewBox="0 0 23 28" fill="none" xmlns="http://www.w3.org/2000/svg">
<path d="M1 19.6415V24.7418C1 25.2511 1.17218 25.7455 1.48859 26.1446V26.1446C1.91693 26.685 2.56867 27 3.2582 27H19.7418C20.4313 27 21.0831 26.685 21.5114 26.1446V26.1446C21.8278 25.7455 22 25.2511 22 24.7418V19.6415M1 19.6415H22M1 19.6415V7.86792M22 19.6415V7.86792M22 7.86792V3.2582C22 2.74887 21.8278 2.2545 21.5114 1.85537V1.85537C21.0831 1.31503 20.4313 1 19.7418 1H3.2582C2.56867 1 1.91693 1.31503 1.48859 1.85537V1.85537C1.17218 2.2545 1 2.74887 1 3.2582V7.86792M22 7.86792H1M8.77778 3.9434H14.2222" stroke="#A3773B" stroke-width="1.5"/>
</svg>
