<svg width="17" height="35" viewBox="0 0 17 35" fill="none" xmlns="http://www.w3.org/2000/svg">
<path d="M5.65685 33.5H11.3431C12.404 33.5 13.4214 33.0786 14.1716 32.3284L14.8284 31.6716C15.5786 30.9214 16 29.904 16 28.8431V17.1569C16 16.096 15.5786 15.0786 14.8284 14.3284L12.6716 12.1716C11.9214 11.4214 11.5 10.404 11.5 9.34315V2.70711C11.5 2.25435 11.3201 1.82014 11 1.5C10.6799 1.17986 10.2456 1 9.79289 1H7.20711C6.75435 1 6.32014 1.17986 6 1.5C5.67986 1.82014 5.5 2.25435 5.5 2.70711V9.34315C5.5 10.404 5.07857 11.4214 4.32843 12.1716L2.17157 14.3284C1.42143 15.0786 1 16.096 1 17.1569V28.8431C1 29.904 1.42143 30.9214 2.17157 31.6716L2.82843 32.3284C3.57857 33.0786 4.59599 33.5 5.65685 33.5Z" stroke="#A3773B" stroke-width="1.5"/>
</svg>
