<svg width="22" height="34" viewBox="0 0 22 34" fill="none" xmlns="http://www.w3.org/2000/svg">
<path d="M7.5 7.5H7.15685C6.09599 7.5 5.07857 7.92143 4.32843 8.67157L2.17157 10.8284C1.42143 11.5786 1 12.596 1 13.6569V25.3431C1 26.404 1.42143 27.4214 2.17157 28.1716L4.43934 30.4393C5.11847 31.1185 6.03957 31.5 7 31.5H7.79289C8.24565 31.5 8.67986 31.6799 9 32V32C9.32014 32.3201 9.75435 32.5 10.2071 32.5H11.2929C11.7456 32.5 12.1799 32.3201 12.5 32V32C12.8201 31.6799 13.2544 31.5 13.7071 31.5H14.5C15.4604 31.5 16.3815 31.1185 17.0607 30.4393L19.3284 28.1716C20.0786 27.4214 20.5 26.404 20.5 25.3431V13.6569C20.5 12.596 20.0786 11.5786 19.3284 10.8284L17.1716 8.67157C16.4214 7.92143 15.404 7.5 14.3431 7.5H14M7.5 7.5V6.03553C7.5 5.37249 7.23661 4.73661 6.76777 4.26777L6.06066 3.56066C5.47487 2.97487 5.47487 2.02513 6.06066 1.43934V1.43934C6.34196 1.15804 6.7235 1 7.12132 1H14.3787C14.7765 1 15.158 1.15804 15.4393 1.43934V1.43934C16.0251 2.02513 16.0251 2.97487 15.4393 3.56066L14.7322 4.26777C14.2634 4.73661 14 5.37249 14 6.03553V7.5M7.5 7.5H14M7.5 10.5L5.67157 12.3284C4.92143 13.0786 4.5 14.096 4.5 15.1569V16.5" stroke="#A3773B" stroke-width="1.5"/>
</svg>
