<svg width="120" height="32" viewBox="0 0 120 32" fill="none" xmlns="http://www.w3.org/2000/svg">
<path fill-rule="evenodd" clip-rule="evenodd" d="M1.68834 0H0.96666C0.96666 0 0.203436 2.66805 0.0396555 5.0087C-0.182393 8.18206 0.565714 11.0344 1.34518 14.0063C2.15909 17.1095 3.00719 20.3431 2.82067 24.2087C2.75546 25.5601 2.55577 26.5974 2.35835 27.6228C2.12441 28.838 1.89366 30.0366 1.89366 31.7217C3.66299 31.9072 5.94493 32 8.19734 32C10.4884 32 12.7488 31.9072 14.4082 31.7217C14.4082 30.0366 14.1775 28.838 13.9435 27.6228C13.7461 26.5974 13.5464 25.5601 13.4812 24.2087C13.2947 20.3431 14.1428 17.1095 14.9567 14.0063C15.7362 11.0344 16.4843 8.18206 16.2622 5.0087C16.0985 2.66805 15.3352 0 15.3352 0H14.6137C14.6137 0 15.5152 2.62125 15.6689 4.92082C15.8771 8.03592 15.1322 10.8362 14.3562 13.7533C13.5446 16.8043 12.699 19.9832 12.8742 23.784C12.9624 25.6979 13.1772 26.7782 13.3713 27.7541C13.5684 28.7446 13.744 29.6275 13.744 31.1652C12.1868 31.3507 10.207 31.4435 8.19734 31.4435C6.22208 31.4435 4.21801 31.3507 2.55812 31.1652C2.55812 29.5737 2.75202 28.5575 2.9598 27.4686C3.15056 26.469 3.35303 25.4079 3.4279 23.784C3.60316 19.9831 2.75751 16.8042 1.94588 13.7531C1.16989 10.836 0.424999 8.03586 0.633162 4.92082C0.786833 2.62125 1.68834 0 1.68834 0Z" fill="url(#paint0_linear_21_18258)"/>
<path fill-rule="evenodd" clip-rule="evenodd" d="M1.45925 3.0188C1.35946 3.57089 1.27983 4.14545 1.24314 4.7013C1.03658 7.83132 1.77575 10.645 2.54579 13.5761C3.35119 16.6418 4.19035 19.8361 4.01644 23.6552C3.93477 25.4489 3.75104 26.4043 3.56847 27.3538C3.40403 28.2089 3.24052 29.0592 3.15334 30.5128C4.79876 30.6992 6.51436 30.7924 8.19918 30.7924C9.91691 30.7924 11.6027 30.6992 13.1495 30.5128C13.065 29.1052 12.9135 28.3614 12.7571 27.5942C12.5728 26.6895 12.3818 25.7521 12.2864 23.6552C12.1126 19.8361 12.9517 16.642 13.757 13.5763C14.5271 10.6451 15.2662 7.83139 15.0597 4.7013C15.023 4.14545 14.9433 3.57089 14.8436 3.0188H1.45925ZM9.81673 12.0884C10.1651 10.3352 10.7144 8.78551 11.2246 7.34611L11.2246 7.3461C11.7668 5.81642 12.2648 4.41129 12.4307 3.0188L13.9485 3.0188C13.9485 3.0188 13.792 5.07277 13.5185 6.22275C13.0902 8.0235 12.6574 9.10768 12.2431 10.1456C11.8721 11.0751 11.5159 11.9674 11.1909 13.3041C10.8891 14.5454 10.8206 15.4191 10.7557 16.2469C10.7151 16.7642 10.676 17.2636 10.5822 17.8236C10.1825 20.2095 8.82581 23.7044 8.82581 23.7044C8.82581 23.7044 8.92973 16.552 9.81673 12.0884Z" fill="url(#paint1_linear_21_18258)"/>
<path d="M98.4902 25.3405H99.3829C99.5787 25.3405 99.7424 25.3589 99.874 25.3959C100.007 25.4318 100.112 25.5107 100.189 25.6326C100.266 25.7533 100.305 25.8888 100.305 26.0389C100.305 26.2804 100.228 26.4637 100.075 26.5888C99.9214 26.7139 99.6994 26.7765 99.409 26.7765H98.8068V27.7328H98.4902V25.3405ZM98.8068 26.4925H99.4122C99.6157 26.4925 99.7604 26.4545 99.8463 26.3783C99.9333 26.3022 99.9769 26.1923 99.9769 26.0487C99.9769 25.9529 99.9529 25.8681 99.9051 25.7941C99.8572 25.7201 99.7963 25.6734 99.7223 25.6538C99.6494 25.6342 99.5439 25.6244 99.4057 25.6244H98.8068V26.4925Z" fill="url(#paint2_linear_21_18258)"/>
<path d="M97.2479 27.7328H96.9297V25.3405H97.2479V27.7328Z" fill="url(#paint3_linear_21_18258)"/>
<path d="M95.6859 27.7328H95.3677V26.6068H94.1242V27.7328H93.8076V25.3405H94.1242V26.3228H95.3677V25.3405H95.6859V27.7328Z" fill="url(#paint4_linear_21_18258)"/>
<path d="M91.8119 27.7736C91.4747 27.7736 91.2223 27.698 91.0547 27.5467C90.8883 27.3955 90.8007 27.2013 90.792 26.9642H91.0971C91.1135 27.1426 91.1874 27.2748 91.3191 27.3607C91.4518 27.4456 91.6117 27.488 91.7988 27.488C91.9762 27.488 92.1187 27.4516 92.2264 27.3787C92.3352 27.3058 92.3896 27.2068 92.3896 27.0817C92.3896 26.95 92.3336 26.8543 92.2215 26.7945C92.1094 26.7346 91.9163 26.6759 91.6422 26.6182C91.3691 26.5595 91.1728 26.4784 91.0531 26.3751C90.9345 26.2717 90.8752 26.1341 90.8752 25.9622C90.8752 25.7686 90.9525 25.6097 91.1069 25.4857C91.2625 25.3617 91.4687 25.2997 91.7254 25.2997C91.9952 25.2997 92.2128 25.3622 92.3782 25.4873C92.5435 25.6125 92.6311 25.7892 92.6409 26.0177H92.3325C92.3009 25.7283 92.1029 25.5836 91.7385 25.5836C91.5622 25.5836 91.4257 25.6168 91.3289 25.6832C91.232 25.7495 91.1836 25.8377 91.1836 25.9475C91.1836 26.0476 91.2223 26.1227 91.2995 26.1727C91.3778 26.2228 91.5231 26.2712 91.7352 26.318C91.9484 26.3647 92.1176 26.411 92.2427 26.4567C92.3678 26.5024 92.475 26.5736 92.5642 26.6704C92.6534 26.7662 92.698 26.8951 92.698 27.0572C92.698 27.2628 92.6159 27.4336 92.4516 27.5696C92.2884 27.7056 92.0752 27.7736 91.8119 27.7736Z" fill="url(#paint5_linear_21_18258)"/>
<path d="M89.8203 27.7328H89.4776L89.2524 27.0947C89.2122 26.9816 89.1453 26.8891 89.0517 26.8173C88.9581 26.7455 88.8504 26.7096 88.7286 26.7096H88.1428V27.7328H87.8262V25.3405H88.8852C89.0702 25.3405 89.2214 25.3584 89.3389 25.3943C89.4564 25.4302 89.5521 25.5058 89.6261 25.6211C89.7001 25.7365 89.7371 25.8665 89.7371 26.0111C89.7371 26.1765 89.6892 26.3147 89.5935 26.4256C89.4977 26.5366 89.3666 26.6089 89.2002 26.6427V26.6492C89.3666 26.7025 89.4934 26.8467 89.5804 27.0816L89.8203 27.7328ZM88.1428 26.4256H88.8493C89.0463 26.4256 89.1888 26.3946 89.2769 26.3326C89.3661 26.2706 89.4107 26.1635 89.4107 26.0111C89.4107 25.7392 89.2399 25.6032 88.8983 25.6032H88.1428V26.4256Z" fill="url(#paint6_linear_21_18258)"/>
<path d="M86.7123 27.7328H84.9287V25.3405H86.6568V25.6244H85.2453V26.3555H86.5655V26.6394H85.2453V27.4488H86.7123V27.7328Z" fill="url(#paint7_linear_21_18258)"/>
<path d="M83.723 27.7328H83.3983L82.145 25.8447V27.7328H81.8447V25.3405H82.1678L83.4211 27.2285V25.3405H83.723V27.7328Z" fill="url(#paint8_linear_21_18258)"/>
<path d="M80.8331 25.6244H80.0416V27.7328H79.7234V25.6244H78.9385V25.3405H80.8331V25.6244Z" fill="url(#paint9_linear_21_18258)"/>
<path d="M78.0439 27.7328H77.7012L77.476 27.0947C77.4358 26.9816 77.3689 26.8891 77.2753 26.8173C77.1818 26.7455 77.0741 26.7096 76.9522 26.7096H76.3664V27.7328H76.0498V25.3405H77.1089C77.2938 25.3405 77.445 25.3584 77.5625 25.3943C77.68 25.4302 77.7758 25.5058 77.8497 25.6211C77.9237 25.7365 77.9607 25.8665 77.9607 26.0111C77.9607 26.1765 77.9128 26.3147 77.8171 26.4256C77.7214 26.5366 77.5903 26.6089 77.4238 26.6427V26.6492C77.5903 26.7025 77.717 26.8467 77.804 27.0816L78.0439 27.7328ZM76.3664 26.4256H77.073C77.2699 26.4256 77.4124 26.3946 77.5005 26.3326C77.5897 26.2706 77.6343 26.1635 77.6343 26.0111C77.6343 25.7392 77.4635 25.6032 77.1219 25.6032H76.3664V26.4256Z" fill="url(#paint10_linear_21_18258)"/>
<path d="M74.3897 26.7536L73.9687 25.644L73.5672 26.7536H74.3897ZM75.1175 27.7328H74.7601L74.4827 27.0049H73.4807L73.2164 27.7328H72.8818L73.8006 25.3405H74.1416L75.1175 27.7328Z" fill="url(#paint11_linear_21_18258)"/>
<path d="M70.2549 25.3405H71.1475C71.3433 25.3405 71.5071 25.3589 71.6387 25.3959C71.7714 25.4318 71.8764 25.5107 71.9536 25.6326C72.0309 25.7533 72.0695 25.8888 72.0695 26.0389C72.0695 26.2804 71.9928 26.4637 71.8394 26.5888C71.686 26.7139 71.4641 26.7765 71.1736 26.7765H70.5715V27.7328H70.2549V25.3405ZM70.5715 26.4925H71.1769C71.3803 26.4925 71.525 26.4545 71.611 26.3783C71.698 26.3022 71.7415 26.1923 71.7415 26.0487C71.7415 25.9529 71.7176 25.8681 71.6697 25.7941C71.6218 25.7201 71.5609 25.6734 71.4869 25.6538C71.414 25.6342 71.3085 25.6244 71.1704 25.6244H70.5715V26.4925Z" fill="url(#paint12_linear_21_18258)"/>
<path d="M67.5854 27.7328H65.8018V25.3405H67.5299V25.6244H66.1183V26.3555H67.4385V26.6394H66.1183V27.4488H67.5854V27.7328Z" fill="url(#paint13_linear_21_18258)"/>
<path d="M64.596 27.7328H64.2778V26.6068H63.0344V27.7328H62.7178V25.3405H63.0344V26.3228H64.2778V25.3405H64.596V27.7328Z" fill="url(#paint14_linear_21_18258)"/>
<path d="M61.7061 25.6244H60.9147V27.7328H60.5964V25.6244H59.8115V25.3405H61.7061V25.6244Z" fill="url(#paint15_linear_21_18258)"/>
<path d="M57.2445 27.7328H56.9197L55.6665 25.8447V27.7328H55.3662V25.3405H55.6893L56.9426 27.2285V25.3405H57.2445V27.7328Z" fill="url(#paint16_linear_21_18258)"/>
<path d="M53.1335 25.2997C53.4686 25.2997 53.7427 25.4128 53.956 25.6391C54.1692 25.8654 54.2758 26.1646 54.2758 26.5366C54.2758 26.9087 54.1692 27.2079 53.956 27.4341C53.7427 27.6604 53.4686 27.7736 53.1335 27.7736C52.7974 27.7736 52.5221 27.6604 52.3078 27.4341C52.0935 27.2068 51.9863 26.9076 51.9863 26.5366C51.9863 26.1646 52.0935 25.8654 52.3078 25.6391C52.5221 25.4128 52.7974 25.2997 53.1335 25.2997ZM53.1303 27.5027C53.3696 27.5027 53.5654 27.4178 53.7177 27.2481C53.8711 27.0784 53.9478 26.8412 53.9478 26.5366C53.9478 26.232 53.8717 25.9949 53.7194 25.8251C53.5671 25.6554 53.3729 25.5706 53.1368 25.5706C52.8964 25.5706 52.6989 25.6554 52.5444 25.8251C52.391 25.9949 52.3143 26.232 52.3143 26.5366C52.3143 26.8402 52.391 27.0773 52.5444 27.2481C52.6978 27.4178 52.8931 27.5027 53.1303 27.5027Z" fill="url(#paint17_linear_21_18258)"/>
<path d="M49.4262 27.7328H47.6426V25.3405H49.3707V25.6244H47.9592V26.3555H49.2793V26.6394H47.9592V27.4488H49.4262V27.7328Z" fill="url(#paint18_linear_21_18258)"/>
<path d="M46.6847 25.3405L45.7546 27.7328H45.4282L44.498 25.3405H44.8358L45.5914 27.3917L46.3469 25.3405H46.6847Z" fill="url(#paint19_linear_21_18258)"/>
<path d="M43.5038 27.7328H43.1855V25.3405H43.5038V27.7328Z" fill="url(#paint20_linear_21_18258)"/>
<path d="M40.9236 27.7736C40.5798 27.7736 40.3008 27.661 40.0864 27.4358C39.8732 27.2106 39.7666 26.9109 39.7666 26.5366C39.7666 26.1613 39.8721 25.8616 40.0832 25.6375C40.2942 25.4123 40.5711 25.2997 40.9138 25.2997C41.2021 25.2997 41.4414 25.3693 41.6318 25.5086C41.8233 25.6467 41.9304 25.8322 41.9533 26.065H41.6253C41.6122 25.9105 41.5426 25.7898 41.4164 25.7028C41.2902 25.6146 41.1238 25.5706 40.9171 25.5706C40.6701 25.5706 40.471 25.6549 40.3198 25.8235C40.1697 25.9921 40.0946 26.2298 40.0946 26.5366C40.0946 26.8423 40.1708 27.08 40.3231 27.2497C40.4754 27.4184 40.6745 27.5027 40.9203 27.5027C41.2652 27.5027 41.5214 27.389 41.6889 27.1616V26.7977H41.0574V26.5122H41.9957V27.7328H41.7722L41.6889 27.4815C41.5268 27.6762 41.2717 27.7736 40.9236 27.7736Z" fill="url(#paint21_linear_21_18258)"/>
<path d="M37.3684 25.3405L36.4284 26.7194V27.7328H36.1118V26.7194L35.1719 25.3405H35.557L36.2717 26.442L36.9832 25.3405H37.3684Z" fill="url(#paint22_linear_21_18258)"/>
<path d="M32.3398 25.3405H33.0987C33.9113 25.3405 34.3177 25.7348 34.3177 26.5235C34.3177 27.3297 33.9113 27.7328 33.0987 27.7328H32.3398V25.3405ZM32.6564 27.4488H33.0921C33.4392 27.4488 33.6758 27.3683 33.802 27.2073C33.9282 27.0452 33.9913 26.8173 33.9913 26.5235C33.9913 26.2374 33.9282 26.016 33.802 25.8594C33.6769 25.7027 33.4403 25.6244 33.0921 25.6244H32.6564V27.4488Z" fill="url(#paint23_linear_21_18258)"/>
<path d="M30.6797 26.7536L30.2587 25.644L29.8573 26.7536H30.6797ZM31.4075 27.7328H31.0501L30.7727 27.0049H29.7708L29.5064 27.7328H29.1719L30.0906 25.3405H30.4317L31.4075 27.7328Z" fill="url(#paint24_linear_21_18258)"/>
<path d="M28.3285 27.7328H26.5449V25.3405H28.2731V25.6244H26.8615V26.3555H28.1817V26.6394H26.8615V27.4488H28.3285V27.7328Z" fill="url(#paint25_linear_21_18258)"/>
<path d="M25.456 27.7328H25.1134L24.8882 27.0947C24.8479 26.9816 24.781 26.8891 24.6874 26.8173C24.5939 26.7455 24.4862 26.7096 24.3643 26.7096H23.7785V27.7328H23.4619V25.3405H24.521C24.7059 25.3405 24.8572 25.3584 24.9746 25.3943C25.0921 25.4302 25.1879 25.5058 25.2619 25.6211C25.3358 25.7365 25.3728 25.8665 25.3728 26.0111C25.3728 26.1765 25.3249 26.3147 25.2292 26.4256C25.1335 26.5366 25.0024 26.6089 24.8359 26.6427V26.6492C25.0024 26.7025 25.1291 26.8467 25.2162 27.0816L25.456 27.7328ZM23.7785 26.4256H24.4851C24.682 26.4256 24.8245 26.3946 24.9126 26.3326C25.0018 26.2706 25.0464 26.1635 25.0464 26.0111C25.0464 25.7392 24.8756 25.6032 24.534 25.6032H23.7785V26.4256Z" fill="url(#paint26_linear_21_18258)"/>
<path d="M119.548 6.36848V6.94446C118.322 7.00617 117.797 7.2736 117.71 8.15814C117.622 8.79583 117.578 9.72152 117.578 11.6346V19.9246H116.9L107.577 9.14554H107.534V14.3088C107.534 16.2013 107.599 17.1887 107.665 17.7853C107.774 18.8344 108.278 19.0812 109.766 19.1635V19.7395H104.579V19.1635C105.827 19.1018 106.396 18.8344 106.505 17.8264C106.571 17.1887 106.636 16.1807 106.636 14.3088V9.78323C106.636 8.28156 106.593 8.17871 106.199 7.70558C105.739 7.19131 105.28 7.02675 104.251 6.94446V6.36848H107.468L116.615 16.695H116.681V11.6346C116.681 9.72152 116.615 8.79583 116.528 8.21985C116.418 7.2736 115.915 7.00617 114.383 6.94446V6.36848H119.548Z" fill="url(#paint27_linear_21_18258)"/>
<path d="M92.8108 6.03784C96.5082 6.03784 99.8555 8.71309 99.8555 12.8179C99.8555 17.229 96.552 19.9246 92.5483 19.9246C88.5884 19.9246 85.438 17.0656 85.438 13.1242C85.438 9.44827 88.1946 6.03784 92.8108 6.03784ZM92.3295 6.77303C89.9011 6.77303 87.6695 8.71309 87.6695 12.5524C87.6695 16.3917 89.9229 19.1895 93.0077 19.1895C95.4581 19.1895 97.624 17.2902 97.624 13.3693C97.624 9.06026 95.2174 6.77303 92.3295 6.77303Z" fill="url(#paint28_linear_21_18258)"/>
<path d="M80.6907 19.7593H74.8885V19.1825C76.6839 19.0589 76.8591 18.9353 76.8591 17.1842V8.94364C76.8591 7.19253 76.6839 7.06892 74.8885 6.94532V6.36848H80.6907V6.94532C78.8953 7.06892 78.7201 7.19253 78.7201 8.94364V17.1842C78.7201 18.9559 78.8953 19.0589 80.6907 19.1825V19.7593Z" fill="url(#paint29_linear_21_18258)"/>
<path d="M70.3171 13.4509V14.0227C68.9984 14.1861 68.9105 14.2882 68.9105 15.4931V17.2494C68.9105 17.9641 68.9325 18.6176 69.0643 19.1895C67.7017 19.4754 65.8995 19.9246 64.1413 19.9246C59.3061 19.9246 56.0753 17.1269 56.0753 13.0629C56.0753 8.3455 60.1632 6.03784 64.4709 6.03784C66.3171 6.03784 67.9874 6.48712 68.7127 6.63007C68.7786 7.34483 68.8885 8.46803 69.0424 9.81587L68.427 9.9384C67.8995 7.42652 66.2511 6.7526 64.1413 6.7526C60.7786 6.7526 58.3171 9.06026 58.3171 12.8179C58.3171 15.779 60.1852 19.2099 64.427 19.2099C65.1742 19.2099 65.8555 19.0873 66.3391 18.8627C66.7786 18.6381 67.0424 18.3726 67.0424 17.5149V15.779C67.0424 14.3087 66.9105 14.1657 64.7347 14.0227V13.4509H70.3171Z" fill="url(#paint30_linear_21_18258)"/>
<path d="M50.6969 16.4219L51.3281 16.5043C51.1975 17.1842 50.7622 19.1207 50.5663 19.7593H40.0753V19.1825C42.056 19.0383 42.2301 18.8735 42.2301 17.1842V8.98484C42.2301 7.15133 42.056 7.06892 40.3583 6.94532V6.36848H50.0657C50.0657 6.88351 50.1745 8.2844 50.2398 9.33506L49.6086 9.41747C49.4127 8.55222 49.1951 8.09899 48.9121 7.66636C48.6074 7.21313 48.0197 7.06892 46.4526 7.06892H44.7984C44.1237 7.06892 44.0802 7.13073 44.0802 7.72816V12.4253H46.1261C48.1068 12.4253 48.2156 12.2604 48.4768 10.8802H49.108V14.815H48.4768C48.1938 13.3523 48.0415 13.2287 46.1479 13.2287H44.0802V17.1223C44.0802 18.0906 44.2108 18.5438 44.6025 18.7911C45.0161 19.0589 45.7779 19.0589 46.8662 19.0589C48.5203 19.0589 49.1298 18.8941 49.6086 18.3584C49.9786 17.9464 50.3922 17.2254 50.6969 16.4219Z" fill="url(#paint31_linear_21_18258)"/>
<path d="M36.383 19.389L36.2964 19.9246C36.0367 19.9246 35.777 19.9246 35.5389 19.904C33.8939 19.8216 33.0065 19.3684 32.0325 18.0292C31.2749 17.0197 30.4957 15.7424 29.8464 14.7329C29.4784 14.1561 29.1105 13.9088 28.0066 13.9088H27.314V17.1846C27.314 18.9357 27.5088 19.0593 29.2187 19.183V19.7598H23.5479V19.183C25.3227 19.0593 25.4959 18.9357 25.4959 17.1846V8.90253C25.4959 7.15136 25.3227 7.08955 23.6344 6.94534V6.36848H29.0023C30.5823 6.36848 31.6429 6.5539 32.4437 7.06895C33.3311 7.6046 33.8939 8.5317 33.8939 9.76782C33.8939 11.5396 32.7251 12.6315 31.1451 13.3114C31.513 13.9706 32.4221 15.351 33.0714 16.2781C33.8506 17.3494 34.2835 17.885 34.8246 18.4207C35.3874 19.0387 35.9068 19.2654 36.383 19.389ZM27.314 13.2496H28.3529C29.4351 13.2496 30.1494 13.0848 30.6905 12.6521C31.5347 12.034 31.881 11.21 31.881 10.0975C31.881 7.87243 30.3442 7.04835 28.7209 7.04835C28.0932 7.04835 27.7252 7.13076 27.5521 7.25437C27.3789 7.35738 27.314 7.584 27.314 8.16086V13.2496Z" fill="url(#paint32_linear_21_18258)"/>
<defs>
<linearGradient id="paint0_linear_21_18258" x1="0.503198" y1="18.2725" x2="15.1035" y2="18.2725" gradientUnits="userSpaceOnUse">
<stop stop-color="#A3773A"/>
<stop offset="0.25" stop-color="#DEC55B"/>
<stop offset="0.5" stop-color="#F3DD90"/>
<stop offset="0.75" stop-color="#DEC55B"/>
<stop offset="1" stop-color="#A3773A"/>
</linearGradient>
<linearGradient id="paint1_linear_21_18258" x1="1.63666" y1="18.8779" x2="14.074" y2="18.8779" gradientUnits="userSpaceOnUse">
<stop stop-color="#A3773A"/>
<stop offset="0.25" stop-color="#DEC55B"/>
<stop offset="0.5" stop-color="#F3DD90"/>
<stop offset="0.75" stop-color="#DEC55B"/>
<stop offset="1" stop-color="#A3773A"/>
</linearGradient>
<linearGradient id="paint2_linear_21_18258" x1="98.5462" y1="26.7065" x2="100.171" y2="26.7065" gradientUnits="userSpaceOnUse">
<stop stop-color="#A3773A"/>
<stop offset="0.25" stop-color="#DEC55B"/>
<stop offset="0.5" stop-color="#F3DD90"/>
<stop offset="0.75" stop-color="#DEC55B"/>
<stop offset="1" stop-color="#A3773A"/>
</linearGradient>
<linearGradient id="paint3_linear_21_18258" x1="96.9395" y1="26.7065" x2="97.2245" y2="26.7065" gradientUnits="userSpaceOnUse">
<stop stop-color="#A3773A"/>
<stop offset="0.25" stop-color="#DEC55B"/>
<stop offset="0.5" stop-color="#F3DD90"/>
<stop offset="0.75" stop-color="#DEC55B"/>
<stop offset="1" stop-color="#A3773A"/>
</linearGradient>
<linearGradient id="paint4_linear_21_18258" x1="93.8656" y1="26.7065" x2="95.5478" y2="26.7065" gradientUnits="userSpaceOnUse">
<stop stop-color="#A3773A"/>
<stop offset="0.25" stop-color="#DEC55B"/>
<stop offset="0.5" stop-color="#F3DD90"/>
<stop offset="0.75" stop-color="#DEC55B"/>
<stop offset="1" stop-color="#A3773A"/>
</linearGradient>
<linearGradient id="paint5_linear_21_18258" x1="90.8508" y1="26.7123" x2="92.5579" y2="26.7123" gradientUnits="userSpaceOnUse">
<stop stop-color="#A3773A"/>
<stop offset="0.25" stop-color="#DEC55B"/>
<stop offset="0.5" stop-color="#F3DD90"/>
<stop offset="0.75" stop-color="#DEC55B"/>
<stop offset="1" stop-color="#A3773A"/>
</linearGradient>
<linearGradient id="paint6_linear_21_18258" x1="87.8877" y1="26.7065" x2="89.6737" y2="26.7065" gradientUnits="userSpaceOnUse">
<stop stop-color="#A3773A"/>
<stop offset="0.25" stop-color="#DEC55B"/>
<stop offset="0.5" stop-color="#F3DD90"/>
<stop offset="0.75" stop-color="#DEC55B"/>
<stop offset="1" stop-color="#A3773A"/>
</linearGradient>
<linearGradient id="paint7_linear_21_18258" x1="84.9838" y1="26.7065" x2="86.5812" y2="26.7065" gradientUnits="userSpaceOnUse">
<stop stop-color="#A3773A"/>
<stop offset="0.25" stop-color="#DEC55B"/>
<stop offset="0.5" stop-color="#F3DD90"/>
<stop offset="0.75" stop-color="#DEC55B"/>
<stop offset="1" stop-color="#A3773A"/>
</linearGradient>
<linearGradient id="paint8_linear_21_18258" x1="81.9027" y1="26.7065" x2="83.5849" y2="26.7065" gradientUnits="userSpaceOnUse">
<stop stop-color="#A3773A"/>
<stop offset="0.25" stop-color="#DEC55B"/>
<stop offset="0.5" stop-color="#F3DD90"/>
<stop offset="0.75" stop-color="#DEC55B"/>
<stop offset="1" stop-color="#A3773A"/>
</linearGradient>
<linearGradient id="paint9_linear_21_18258" x1="78.997" y1="26.7065" x2="80.6938" y2="26.7065" gradientUnits="userSpaceOnUse">
<stop stop-color="#A3773A"/>
<stop offset="0.25" stop-color="#DEC55B"/>
<stop offset="0.5" stop-color="#F3DD90"/>
<stop offset="0.75" stop-color="#DEC55B"/>
<stop offset="1" stop-color="#A3773A"/>
</linearGradient>
<linearGradient id="paint10_linear_21_18258" x1="76.1114" y1="26.7065" x2="77.8973" y2="26.7065" gradientUnits="userSpaceOnUse">
<stop stop-color="#A3773A"/>
<stop offset="0.25" stop-color="#DEC55B"/>
<stop offset="0.5" stop-color="#F3DD90"/>
<stop offset="0.75" stop-color="#DEC55B"/>
<stop offset="1" stop-color="#A3773A"/>
</linearGradient>
<linearGradient id="paint11_linear_21_18258" x1="72.9508" y1="26.7065" x2="74.9531" y2="26.7065" gradientUnits="userSpaceOnUse">
<stop stop-color="#A3773A"/>
<stop offset="0.25" stop-color="#DEC55B"/>
<stop offset="0.5" stop-color="#F3DD90"/>
<stop offset="0.75" stop-color="#DEC55B"/>
<stop offset="1" stop-color="#A3773A"/>
</linearGradient>
<linearGradient id="paint12_linear_21_18258" x1="70.3109" y1="26.7065" x2="71.9361" y2="26.7065" gradientUnits="userSpaceOnUse">
<stop stop-color="#A3773A"/>
<stop offset="0.25" stop-color="#DEC55B"/>
<stop offset="0.5" stop-color="#F3DD90"/>
<stop offset="0.75" stop-color="#DEC55B"/>
<stop offset="1" stop-color="#A3773A"/>
</linearGradient>
<linearGradient id="paint13_linear_21_18258" x1="65.8568" y1="26.7065" x2="67.4543" y2="26.7065" gradientUnits="userSpaceOnUse">
<stop stop-color="#A3773A"/>
<stop offset="0.25" stop-color="#DEC55B"/>
<stop offset="0.5" stop-color="#F3DD90"/>
<stop offset="0.75" stop-color="#DEC55B"/>
<stop offset="1" stop-color="#A3773A"/>
</linearGradient>
<linearGradient id="paint14_linear_21_18258" x1="62.7758" y1="26.7065" x2="64.458" y2="26.7065" gradientUnits="userSpaceOnUse">
<stop stop-color="#A3773A"/>
<stop offset="0.25" stop-color="#DEC55B"/>
<stop offset="0.5" stop-color="#F3DD90"/>
<stop offset="0.75" stop-color="#DEC55B"/>
<stop offset="1" stop-color="#A3773A"/>
</linearGradient>
<linearGradient id="paint15_linear_21_18258" x1="59.87" y1="26.7065" x2="61.5668" y2="26.7065" gradientUnits="userSpaceOnUse">
<stop stop-color="#A3773A"/>
<stop offset="0.25" stop-color="#DEC55B"/>
<stop offset="0.5" stop-color="#F3DD90"/>
<stop offset="0.75" stop-color="#DEC55B"/>
<stop offset="1" stop-color="#A3773A"/>
</linearGradient>
<linearGradient id="paint16_linear_21_18258" x1="55.4242" y1="26.7065" x2="57.1064" y2="26.7065" gradientUnits="userSpaceOnUse">
<stop stop-color="#A3773A"/>
<stop offset="0.25" stop-color="#DEC55B"/>
<stop offset="0.5" stop-color="#F3DD90"/>
<stop offset="0.75" stop-color="#DEC55B"/>
<stop offset="1" stop-color="#A3773A"/>
</linearGradient>
<linearGradient id="paint17_linear_21_18258" x1="52.057" y1="26.7123" x2="54.1075" y2="26.7123" gradientUnits="userSpaceOnUse">
<stop stop-color="#A3773A"/>
<stop offset="0.25" stop-color="#DEC55B"/>
<stop offset="0.5" stop-color="#F3DD90"/>
<stop offset="0.75" stop-color="#DEC55B"/>
<stop offset="1" stop-color="#A3773A"/>
</linearGradient>
<linearGradient id="paint18_linear_21_18258" x1="47.6976" y1="26.7065" x2="49.2951" y2="26.7065" gradientUnits="userSpaceOnUse">
<stop stop-color="#A3773A"/>
<stop offset="0.25" stop-color="#DEC55B"/>
<stop offset="0.5" stop-color="#F3DD90"/>
<stop offset="0.75" stop-color="#DEC55B"/>
<stop offset="1" stop-color="#A3773A"/>
</linearGradient>
<linearGradient id="paint19_linear_21_18258" x1="44.5655" y1="26.7065" x2="46.524" y2="26.7065" gradientUnits="userSpaceOnUse">
<stop stop-color="#A3773A"/>
<stop offset="0.25" stop-color="#DEC55B"/>
<stop offset="0.5" stop-color="#F3DD90"/>
<stop offset="0.75" stop-color="#DEC55B"/>
<stop offset="1" stop-color="#A3773A"/>
</linearGradient>
<linearGradient id="paint20_linear_21_18258" x1="43.1954" y1="26.7065" x2="43.4804" y2="26.7065" gradientUnits="userSpaceOnUse">
<stop stop-color="#A3773A"/>
<stop offset="0.25" stop-color="#DEC55B"/>
<stop offset="0.5" stop-color="#F3DD90"/>
<stop offset="0.75" stop-color="#DEC55B"/>
<stop offset="1" stop-color="#A3773A"/>
</linearGradient>
<linearGradient id="paint21_linear_21_18258" x1="39.8354" y1="26.7123" x2="41.8319" y2="26.7123" gradientUnits="userSpaceOnUse">
<stop stop-color="#A3773A"/>
<stop offset="0.25" stop-color="#DEC55B"/>
<stop offset="0.5" stop-color="#F3DD90"/>
<stop offset="0.75" stop-color="#DEC55B"/>
<stop offset="1" stop-color="#A3773A"/>
</linearGradient>
<linearGradient id="paint22_linear_21_18258" x1="35.2397" y1="26.7065" x2="37.2069" y2="26.7065" gradientUnits="userSpaceOnUse">
<stop stop-color="#A3773A"/>
<stop offset="0.25" stop-color="#DEC55B"/>
<stop offset="0.5" stop-color="#F3DD90"/>
<stop offset="0.75" stop-color="#DEC55B"/>
<stop offset="1" stop-color="#A3773A"/>
</linearGradient>
<linearGradient id="paint23_linear_21_18258" x1="32.4009" y1="26.7065" x2="34.1723" y2="26.7065" gradientUnits="userSpaceOnUse">
<stop stop-color="#A3773A"/>
<stop offset="0.25" stop-color="#DEC55B"/>
<stop offset="0.5" stop-color="#F3DD90"/>
<stop offset="0.75" stop-color="#DEC55B"/>
<stop offset="1" stop-color="#A3773A"/>
</linearGradient>
<linearGradient id="paint24_linear_21_18258" x1="29.2409" y1="26.7065" x2="31.2432" y2="26.7065" gradientUnits="userSpaceOnUse">
<stop stop-color="#A3773A"/>
<stop offset="0.25" stop-color="#DEC55B"/>
<stop offset="0.5" stop-color="#F3DD90"/>
<stop offset="0.75" stop-color="#DEC55B"/>
<stop offset="1" stop-color="#A3773A"/>
</linearGradient>
<linearGradient id="paint25_linear_21_18258" x1="26.6" y1="26.7065" x2="28.1974" y2="26.7065" gradientUnits="userSpaceOnUse">
<stop stop-color="#A3773A"/>
<stop offset="0.25" stop-color="#DEC55B"/>
<stop offset="0.5" stop-color="#F3DD90"/>
<stop offset="0.75" stop-color="#DEC55B"/>
<stop offset="1" stop-color="#A3773A"/>
</linearGradient>
<linearGradient id="paint26_linear_21_18258" x1="23.5235" y1="26.7065" x2="25.3095" y2="26.7065" gradientUnits="userSpaceOnUse">
<stop stop-color="#A3773A"/>
<stop offset="0.25" stop-color="#DEC55B"/>
<stop offset="0.5" stop-color="#F3DD90"/>
<stop offset="0.75" stop-color="#DEC55B"/>
<stop offset="1" stop-color="#A3773A"/>
</linearGradient>
<linearGradient id="paint27_linear_21_18258" x1="26.5111" y1="13.9674" x2="112.491" y2="13.9674" gradientUnits="userSpaceOnUse">
<stop stop-color="#A3773A"/>
<stop offset="0.25" stop-color="#DEC55B"/>
<stop offset="0.5" stop-color="#F3DD90"/>
<stop offset="0.75" stop-color="#DEC55B"/>
<stop offset="1" stop-color="#A3773A"/>
</linearGradient>
<linearGradient id="paint28_linear_21_18258" x1="26.5111" y1="13.9674" x2="112.491" y2="13.9674" gradientUnits="userSpaceOnUse">
<stop stop-color="#A3773A"/>
<stop offset="0.25" stop-color="#DEC55B"/>
<stop offset="0.5" stop-color="#F3DD90"/>
<stop offset="0.75" stop-color="#DEC55B"/>
<stop offset="1" stop-color="#A3773A"/>
</linearGradient>
<linearGradient id="paint29_linear_21_18258" x1="26.5111" y1="13.9674" x2="112.491" y2="13.9674" gradientUnits="userSpaceOnUse">
<stop stop-color="#A3773A"/>
<stop offset="0.25" stop-color="#DEC55B"/>
<stop offset="0.5" stop-color="#F3DD90"/>
<stop offset="0.75" stop-color="#DEC55B"/>
<stop offset="1" stop-color="#A3773A"/>
</linearGradient>
<linearGradient id="paint30_linear_21_18258" x1="26.5111" y1="13.9674" x2="112.491" y2="13.9674" gradientUnits="userSpaceOnUse">
<stop stop-color="#A3773A"/>
<stop offset="0.25" stop-color="#DEC55B"/>
<stop offset="0.5" stop-color="#F3DD90"/>
<stop offset="0.75" stop-color="#DEC55B"/>
<stop offset="1" stop-color="#A3773A"/>
</linearGradient>
<linearGradient id="paint31_linear_21_18258" x1="26.5111" y1="13.9674" x2="112.491" y2="13.9674" gradientUnits="userSpaceOnUse">
<stop stop-color="#A3773A"/>
<stop offset="0.25" stop-color="#DEC55B"/>
<stop offset="0.5" stop-color="#F3DD90"/>
<stop offset="0.75" stop-color="#DEC55B"/>
<stop offset="1" stop-color="#A3773A"/>
</linearGradient>
<linearGradient id="paint32_linear_21_18258" x1="26.5111" y1="13.9674" x2="112.491" y2="13.9674" gradientUnits="userSpaceOnUse">
<stop stop-color="#A3773A"/>
<stop offset="0.25" stop-color="#DEC55B"/>
<stop offset="0.5" stop-color="#F3DD90"/>
<stop offset="0.75" stop-color="#DEC55B"/>
<stop offset="1" stop-color="#A3773A"/>
</linearGradient>
</defs>
</svg>
