<svg width="198" height="53" viewBox="0 0 198 53" fill="none" xmlns="http://www.w3.org/2000/svg">
<path fill-rule="evenodd" clip-rule="evenodd" d="M2.79632 0H1.60103C1.60103 0 0.336941 4.41897 0.0656794 8.29565C-0.302088 13.5515 0.936964 18.2757 2.22796 23.1979C3.57599 28.3376 4.98066 33.6933 4.67173 40.0957C4.56373 42.3339 4.233 44.0519 3.90602 45.7503C3.51856 47.7629 3.13638 49.7481 3.13638 52.5391C6.06683 52.8464 9.84629 53 13.5768 53C17.3713 53 21.1152 52.8464 23.8636 52.5391C23.8636 49.7481 23.4814 47.7629 23.094 45.7503C22.767 44.0519 22.4363 42.3339 22.3283 40.0957C22.0193 33.6933 23.424 28.3377 24.772 23.1979C26.063 18.2757 27.3021 13.5515 26.9343 8.29565C26.6631 4.41897 25.399 0 25.399 0H24.204C24.204 0 25.6971 4.34144 25.9516 8.15012C26.2964 13.3095 25.0627 17.9474 23.7775 22.7789C22.4333 27.8321 21.0328 33.0972 21.3228 39.3922C21.4689 42.5622 21.8248 44.3514 22.1463 45.9677C22.4726 47.6082 22.7634 49.0705 22.7634 51.6174C20.1844 51.9246 16.9053 52.0783 13.5768 52.0783C10.3053 52.0783 6.98609 51.9246 4.23689 51.6174C4.23689 48.9814 4.55803 47.2984 4.90217 45.4949C5.21812 43.8392 5.55345 42.0819 5.67747 39.3922C5.96773 33.097 4.56712 27.8319 3.22286 22.7786C1.93763 17.9472 0.703904 13.3094 1.04868 8.15012C1.30319 4.34144 2.79632 0 2.79632 0Z" fill="#D1A465"/>
<path fill-rule="evenodd" clip-rule="evenodd" d="M2.41611 5C2.25084 5.91441 2.11895 6.86602 2.05819 7.78665C1.71607 12.9707 2.94033 17.6309 4.21569 22.4855C5.54964 27.5631 6.93951 32.8536 6.65147 39.1791C6.51619 42.1498 6.2119 43.7322 5.90951 45.3048C5.63716 46.7211 5.36634 48.1294 5.22195 50.5369C7.94719 50.8456 10.7886 51 13.5791 51C16.4241 51 19.2161 50.8456 21.778 50.5369C21.6382 48.2056 21.3872 46.9737 21.1283 45.7029C20.8229 44.2045 20.5066 42.6521 20.3485 39.1791C20.0607 32.8537 21.4505 27.5634 22.7843 22.4858C24.0597 17.631 25.2839 12.9709 24.9418 7.78665C24.881 6.86602 24.7492 5.91441 24.5839 5H2.41611ZM16.2582 20.0215C16.8352 17.1178 17.7449 14.5511 18.5899 12.1671L18.5899 12.1671C19.4879 9.63357 20.3128 7.30631 20.5875 5L23.1014 5C23.1014 5 22.8422 8.4019 22.3892 10.3065C21.6798 13.289 20.963 15.0847 20.2768 16.8038C19.6623 18.3432 19.0724 19.8212 18.5342 22.035C18.0343 24.091 17.9209 25.5381 17.8134 26.9091C17.7462 27.7659 17.6814 28.593 17.526 29.5204C16.864 33.4721 14.617 39.2605 14.617 39.2605C14.617 39.2605 14.7891 27.4144 16.2582 20.0215Z" fill="#D1A465"/>
<path d="M163.125 41.9702H164.603C164.928 41.9702 165.199 42.0008 165.417 42.0621C165.637 42.1216 165.811 42.2522 165.939 42.454C166.067 42.654 166.13 42.8783 166.13 43.127C166.13 43.527 166.003 43.8306 165.749 44.0378C165.495 44.245 165.128 44.3486 164.647 44.3486H163.649V45.9325H163.125V41.9702ZM163.649 43.8784H164.652C164.989 43.8784 165.229 43.8153 165.371 43.6892C165.515 43.563 165.587 43.3811 165.587 43.1432C165.587 42.9847 165.548 42.8441 165.468 42.7216C165.389 42.5991 165.288 42.5216 165.166 42.4891C165.045 42.4567 164.87 42.4405 164.641 42.4405H163.649V43.8784Z" fill="#D1A465"/>
<path d="M161.068 45.9325H160.541V41.9702H161.068V45.9325Z" fill="#D1A465"/>
<path d="M158.48 45.9325H157.953V44.0676H155.893V45.9325H155.369V41.9702H155.893V43.5973H157.953V41.9702H158.48V45.9325Z" fill="#D1A465"/>
<path d="M152.064 46C151.506 46 151.088 45.8747 150.81 45.6243C150.534 45.3738 150.389 45.0522 150.375 44.6594H150.88C150.907 44.9549 151.03 45.1738 151.248 45.3162C151.468 45.4567 151.733 45.527 152.043 45.527C152.336 45.527 152.572 45.4666 152.751 45.3459C152.931 45.2252 153.021 45.0612 153.021 44.854C153.021 44.636 152.928 44.4774 152.743 44.3783C152.557 44.2792 152.237 44.1819 151.783 44.0864C151.331 43.9891 151.006 43.8549 150.807 43.6837C150.611 43.5125 150.513 43.2846 150.513 42.9999C150.513 42.6792 150.641 42.4161 150.897 42.2107C151.154 42.0053 151.496 41.9026 151.921 41.9026C152.368 41.9026 152.728 42.0062 153.002 42.2134C153.276 42.4206 153.421 42.7134 153.437 43.0918H152.926C152.874 42.6125 152.546 42.3729 151.943 42.3729C151.651 42.3729 151.425 42.4278 151.264 42.5377C151.104 42.6476 151.024 42.7936 151.024 42.9756C151.024 43.1414 151.088 43.2657 151.216 43.3486C151.345 43.4314 151.586 43.5116 151.937 43.5891C152.29 43.6666 152.571 43.7432 152.778 43.8188C152.985 43.8945 153.162 44.0125 153.31 44.1729C153.458 44.3315 153.532 44.545 153.532 44.8135C153.532 45.154 153.396 45.4369 153.124 45.6621C152.853 45.8874 152.5 46 152.064 46Z" fill="#D1A465"/>
<path d="M148.766 45.9325H148.198L147.825 44.8757C147.758 44.6883 147.648 44.5351 147.493 44.4162C147.338 44.2973 147.159 44.2378 146.958 44.2378H145.987V45.9325H145.463V41.9702H147.217C147.523 41.9702 147.774 41.9999 147.968 42.0594C148.163 42.1189 148.322 42.2441 148.444 42.4351C148.567 42.6261 148.628 42.8414 148.628 43.081C148.628 43.3549 148.549 43.5838 148.39 43.7676C148.231 43.9513 148.014 44.0712 147.739 44.127V44.1378C148.014 44.2261 148.224 44.4649 148.368 44.8541L148.766 45.9325ZM145.987 43.7676H147.158C147.484 43.7676 147.72 43.7162 147.866 43.6135C148.013 43.5108 148.087 43.3333 148.087 43.081C148.087 42.6306 147.804 42.4054 147.239 42.4054H145.987V43.7676Z" fill="#D1A465"/>
<path d="M143.618 45.9325H140.664V41.9702H143.526V42.4405H141.188V43.6513H143.375V44.1216H141.188V45.4622H143.618V45.9325Z" fill="#D1A465"/>
<path d="M138.668 45.9325H138.13L136.054 42.8054V45.9325H135.557V41.9702H136.092L138.168 45.0973V41.9702H138.668V45.9325Z" fill="#D1A465"/>
<path d="M133.882 42.4405H132.571V45.9325H132.044V42.4405H130.744V41.9702H133.882V42.4405Z" fill="#D1A465"/>
<path d="M129.262 45.9325H128.694L128.321 44.8757C128.255 44.6883 128.144 44.5351 127.989 44.4162C127.834 44.2973 127.655 44.2378 127.454 44.2378H126.483V45.9325H125.959V41.9702H127.713C128.019 41.9702 128.27 41.9999 128.464 42.0594C128.659 42.1189 128.818 42.2441 128.94 42.4351C129.063 42.6261 129.124 42.8414 129.124 43.081C129.124 43.3549 129.045 43.5838 128.886 43.7676C128.728 43.9513 128.51 44.0712 128.235 44.127V44.1378C128.51 44.2261 128.72 44.4649 128.864 44.8541L129.262 45.9325ZM126.483 43.7676H127.654C127.98 43.7676 128.216 43.7162 128.362 43.6135C128.509 43.5108 128.583 43.3333 128.583 43.081C128.583 42.6306 128.3 42.4054 127.735 42.4054H126.483V43.7676Z" fill="#D1A465"/>
<path d="M123.208 44.3108L122.511 42.4729L121.846 44.3108H123.208ZM124.414 45.9325H123.822L123.362 44.727H121.703L121.265 45.9325H120.711L122.233 41.9702H122.797L124.414 45.9325Z" fill="#D1A465"/>
<path d="M116.361 41.9702H117.84C118.164 41.9702 118.435 42.0008 118.653 42.0621C118.873 42.1216 119.047 42.2522 119.175 42.454C119.303 42.654 119.367 42.8783 119.367 43.127C119.367 43.527 119.24 43.8306 118.986 44.0378C118.732 44.245 118.364 44.3486 117.883 44.3486H116.886V45.9325H116.361V41.9702ZM116.886 43.8784H117.888C118.225 43.8784 118.465 43.8153 118.607 43.6892C118.751 43.563 118.824 43.3811 118.824 43.1432C118.824 42.9847 118.784 42.8441 118.705 42.7216C118.625 42.5991 118.524 42.5216 118.402 42.4891C118.281 42.4567 118.106 42.4405 117.878 42.4405H116.886V43.8784Z" fill="#D1A465"/>
<path d="M111.938 45.9325H108.984V41.9702H111.847V42.4405H109.509V43.6513H111.695V44.1216H109.509V45.4622H111.938V45.9325Z" fill="#D1A465"/>
<path d="M106.988 45.9325H106.461V44.0676H104.401V45.9325H103.877V41.9702H104.401V43.5973H106.461V41.9702H106.988V45.9325Z" fill="#D1A465"/>
<path d="M102.202 42.4405H100.892V45.9325H100.364V42.4405H99.0645V41.9702H102.202V42.4405Z" fill="#D1A465"/>
<path d="M94.812 45.9325H94.2742L92.1985 42.8054V45.9325H91.7012V41.9702H92.2363L94.312 45.0973V41.9702H94.812V45.9325Z" fill="#D1A465"/>
<path d="M88.0016 41.9026C88.5566 41.9026 89.0106 42.09 89.3638 42.4648C89.717 42.8395 89.8935 43.3351 89.8935 43.9513C89.8935 44.5675 89.717 45.063 89.3638 45.4378C89.0106 45.8126 88.5566 46 88.0016 46C87.4448 46 86.989 45.8126 86.634 45.4378C86.279 45.0612 86.1016 44.5657 86.1016 43.9513C86.1016 43.3351 86.279 42.8395 86.634 42.4648C86.989 42.09 87.4448 41.9026 88.0016 41.9026ZM87.9962 45.5513C88.3926 45.5513 88.7169 45.4108 88.9692 45.1297C89.2233 44.8486 89.3503 44.4558 89.3503 43.9513C89.3503 43.4468 89.2242 43.054 88.9719 42.7729C88.7196 42.4918 88.398 42.3512 88.007 42.3512C87.6088 42.3512 87.2818 42.4918 87.0259 42.7729C86.7718 43.054 86.6448 43.4468 86.6448 43.9513C86.6448 44.454 86.7718 44.8468 87.0259 45.1297C87.28 45.4108 87.6034 45.5513 87.9962 45.5513Z" fill="#D1A465"/>
<path d="M81.8643 45.9325H78.9102V41.9702H81.7724V42.4405H79.4345V43.6513H81.621V44.1216H79.4345V45.4622H81.8643V45.9325Z" fill="#D1A465"/>
<path d="M77.3209 41.9702L75.7803 45.9325H75.2398L73.6992 41.9702H74.2587L75.5101 45.3676L76.7614 41.9702H77.3209Z" fill="#D1A465"/>
<path d="M72.0544 45.9325H71.5273V41.9702H72.0544V45.9325Z" fill="#D1A465"/>
<path d="M67.7815 46C67.2121 46 66.7499 45.8135 66.395 45.4405C66.0418 45.0675 65.8652 44.5711 65.8652 43.9513C65.8652 43.3296 66.04 42.8332 66.3896 42.4621C66.7391 42.0891 67.1977 41.9026 67.7653 41.9026C68.2428 41.9026 68.6392 42.0179 68.9545 42.2485C69.2716 42.4774 69.4491 42.7846 69.4869 43.1702H68.9437C68.9221 42.9143 68.8067 42.7143 68.5977 42.5702C68.3887 42.4242 68.113 42.3512 67.7707 42.3512C67.3617 42.3512 67.0319 42.4909 66.7815 42.7702C66.5328 43.0495 66.4085 43.4432 66.4085 43.9513C66.4085 44.4576 66.5346 44.8513 66.7869 45.1324C67.0391 45.4117 67.3689 45.5513 67.7761 45.5513C68.3473 45.5513 68.7716 45.363 69.0491 44.9864V44.3837H68.0031V43.9107H69.5572V45.9324H69.1869L69.0491 45.5162C68.7806 45.8387 68.3581 46 67.7815 46Z" fill="#D1A465"/>
<path d="M61.8918 41.9702L60.335 44.254V45.9325H59.8107V44.254L58.2539 41.9702H58.8918L60.0756 43.7946L61.254 41.9702H61.8918Z" fill="#D1A465"/>
<path d="M53.5645 41.9702H54.8212C56.1672 41.9702 56.8402 42.6234 56.8402 43.9297C56.8402 45.2649 56.1672 45.9325 54.8212 45.9325H53.5645V41.9702ZM54.0888 45.4622H54.8104C55.3852 45.4622 55.7771 45.3288 55.9861 45.0622C56.1951 44.7937 56.2996 44.4162 56.2996 43.9297C56.2996 43.4558 56.1951 43.0892 55.9861 42.8297C55.7789 42.5702 55.387 42.4405 54.8104 42.4405H54.0888V45.4622Z" fill="#D1A465"/>
<path d="M50.8138 44.3108L50.1164 42.4729L49.4516 44.3108H50.8138ZM52.0192 45.9325H51.4273L50.9678 44.727H49.3083L48.8705 45.9325H48.3164L49.8381 41.9702H50.4029L52.0192 45.9325Z" fill="#D1A465"/>
<path d="M46.9209 45.9325H43.9668V41.9702H46.829V42.4405H44.4911V43.6513H46.6777V44.1216H44.4911V45.4622H46.9209V45.9325Z" fill="#D1A465"/>
<path d="M42.1621 45.9325H41.5946L41.2216 44.8757C41.1549 44.6883 41.0441 44.5351 40.8891 44.4162C40.7342 44.2973 40.5558 44.2378 40.354 44.2378H39.3837V45.9325H38.8594V41.9702H40.6135C40.9198 41.9702 41.1702 41.9999 41.3648 42.0594C41.5594 42.1189 41.718 42.2441 41.8405 42.4351C41.963 42.6261 42.0243 42.8414 42.0243 43.081C42.0243 43.3549 41.945 43.5838 41.7865 43.7676C41.6279 43.9513 41.4108 44.0712 41.1351 44.127V44.1378C41.4108 44.2261 41.6207 44.4649 41.7648 44.8541L42.1621 45.9325ZM39.3837 43.7676H40.554C40.8801 43.7676 41.1162 43.7162 41.2621 43.6135C41.4099 43.5108 41.4838 43.3333 41.4838 43.081C41.4838 42.6306 41.2009 42.4054 40.6351 42.4054H39.3837V43.7676Z" fill="#D1A465"/>
<path d="M198.002 10.5476V11.5016C195.972 11.6038 195.102 12.0467 194.957 13.5117C194.812 14.5679 194.74 16.1011 194.74 19.2696V33H193.616L178.176 15.1471H178.104V23.6988C178.104 26.8333 178.212 28.4686 178.321 29.4567C178.502 31.1943 179.336 31.6031 181.8 31.7394V32.6934H173.21V31.7394C175.276 31.6372 176.219 31.1943 176.4 29.5248C176.509 28.4686 176.617 26.7992 176.617 23.6988V16.2033C176.617 13.7162 176.545 13.5458 175.893 12.7622C175.131 11.9104 174.37 11.6379 172.667 11.5016V10.5476H177.995L193.145 27.6509H193.254V19.2696C193.254 16.1011 193.145 14.5679 193 13.614C192.819 12.0467 191.985 11.6038 189.448 11.5016V10.5476H198.002Z" fill="#D1A465"/>
<path d="M153.719 10C159.843 10 165.387 14.4309 165.387 21.2294C165.387 28.5353 159.915 33 153.284 33C146.725 33 141.507 28.2647 141.507 21.7368C141.507 15.6485 146.073 10 153.719 10ZM152.922 11.2176C148.899 11.2176 145.203 14.4309 145.203 20.7897C145.203 27.1485 148.936 31.7824 154.045 31.7824C158.103 31.7824 161.691 28.6368 161.691 22.1426C161.691 15.0059 157.705 11.2176 152.922 11.2176Z" fill="#D1A465"/>
<path d="M133.645 32.7262H124.035V31.7708C127.009 31.5661 127.299 31.3614 127.299 28.4611V14.8127C127.299 11.9125 127.009 11.7077 124.035 11.503V10.5476H133.645V11.503C130.671 11.7077 130.381 11.9125 130.381 14.8127V28.4611C130.381 31.3955 130.671 31.5661 133.645 31.7708V32.7262Z" fill="#D1A465"/>
<path d="M116.463 22.2779V23.225C114.279 23.4956 114.134 23.6647 114.134 25.6603V28.5691C114.134 29.7529 114.17 30.8353 114.389 31.7824C112.132 32.2559 109.147 33 106.235 33C98.2265 33 92.8756 28.3662 92.8756 21.6353C92.8756 13.8221 99.6462 10 106.781 10C109.838 10 112.605 10.7441 113.806 10.9809C113.915 12.1647 114.097 14.025 114.352 16.2574L113.333 16.4603C112.459 12.3 109.729 11.1838 106.235 11.1838C100.665 11.1838 96.5885 15.0059 96.5885 21.2294C96.5885 26.1338 99.6826 31.8162 106.708 31.8162C107.946 31.8162 109.074 31.6132 109.875 31.2412C110.603 30.8691 111.04 30.4294 111.04 29.0088V26.1338C111.04 23.6985 110.821 23.4618 107.218 23.225V22.2779H116.463Z" fill="#D1A465"/>
<path d="M83.9675 27.1986L85.0129 27.3351C84.7966 28.4611 84.0757 31.6684 83.7512 32.7262H66.3756V31.7708C69.656 31.532 69.9444 31.259 69.9444 28.4611V14.881C69.9444 11.8442 69.656 11.7077 66.8442 11.503V10.5476H82.9221C82.9221 11.4006 83.1023 13.7209 83.2105 15.461L82.1651 15.5975C81.8406 14.1644 81.4801 13.4138 81.0115 12.6972C80.5068 11.9466 79.5335 11.7077 76.938 11.7077H74.1982C73.0807 11.7077 73.0086 11.8101 73.0086 12.7996V20.5792H76.3972C79.6777 20.5792 79.8579 20.3062 80.2905 18.0201H81.3359V24.5372H80.2905C79.8219 22.1146 79.5695 21.9099 76.4333 21.9099H73.0086V28.3587C73.0086 29.9624 73.2249 30.7131 73.8738 31.1225C74.5587 31.5661 75.8204 31.5661 77.6229 31.5661C80.3626 31.5661 81.372 31.2931 82.1651 30.406C82.7779 29.7236 83.4628 28.5293 83.9675 27.1986Z" fill="#D1A465"/>
<path d="M60.2602 32.1128L60.1168 33C59.6866 33 59.2564 33 58.8621 32.9659C56.1376 32.8294 54.6678 32.0787 53.0546 29.8608C51.7999 28.1888 50.5094 26.0732 49.4339 24.4012C48.8245 23.4458 48.2151 23.0363 46.3868 23.0363H45.2396V28.4618C45.2396 31.3621 45.5623 31.5669 48.3943 31.7716V32.727H39.002V31.7716C41.9415 31.5669 42.2283 31.3621 42.2283 28.4618V14.7446C42.2283 11.8443 41.9415 11.7419 39.1453 11.503V10.5476H48.0358C50.6528 10.5476 52.4093 10.8547 53.7357 11.7078C55.2055 12.5949 56.1376 14.1304 56.1376 16.1778C56.1376 19.1123 54.2018 20.9208 51.5848 22.0468C52.1943 23.1387 53.6999 25.4249 54.7754 26.9604C56.0659 28.7347 56.7829 29.6219 57.6791 30.5091C58.6112 31.5327 59.4715 31.9081 60.2602 32.1128ZM45.2396 21.9444H46.9604C48.7528 21.9444 49.9358 21.6714 50.832 20.9549C52.2301 19.9312 52.8037 18.5663 52.8037 16.7237C52.8037 13.0385 50.2584 11.6737 47.5698 11.6737C46.5302 11.6737 45.9207 11.8101 45.634 12.0149C45.3472 12.1855 45.2396 12.5608 45.2396 13.5162V21.9444Z" fill="#D1A465"/>
</svg>
